<svg width="256" height="256" viewBox="0 0 66 60" xmlns="http://www.w3.org/2000/svg" xmlns:xlink="http://www.w3.org/1999/xlink" overflow="hidden"><g transform="translate(-607 -330)"><path d="M667.077 350 667.077 382.503C667.077 383.88 665.975 385.007 664.613 385.007L615.387 385.007C614.025 385.007 612.923 383.88 612.923 382.503L612.923 350 608 350 608 382.503C608 386.641 611.314 390 615.387 390L664.613 390C668.686 390 672 386.641 672 382.503L672 350 667.077 350ZM656.513 359.27 653.029 355.737 642.465 366.467 642.465 330 637.535 330 637.535 366.467 626.971 355.737 623.487 359.27 640 376.036 656.513 359.27Z" fill="#7F7F7F" fill-rule="evenodd"/></g></svg>