<svg width="256" height="256" viewBox="0 0 54 66" xmlns="http://www.w3.org/2000/svg" xmlns:xlink="http://www.w3.org/1999/xlink" overflow="hidden"><g transform="translate(-613 -327)"><path d="M637.104 343.953C637.815 343.953 638.455 344.32 638.827 344.924L642.029 350.201C642.611 351.159 642.32 352.425 641.377 353.016L637.5 355.466C637.174 355.667 636.813 355.773 636.441 355.773 635.731 355.773 635.09 355.406 634.718 354.791L631.504 349.526C630.922 348.568 631.213 347.302 632.168 346.698L636.045 344.261C636.359 344.06 636.732 343.953 637.104 343.953ZM658.974 328C659.626 328 660.219 328.331 660.557 328.899L665.724 337.379C666.26 338.266 665.992 339.437 665.119 339.982L663.35 341.093C663.059 341.271 662.722 341.377 662.372 341.377 662.023 341.377 661.686 341.271 661.395 341.093 661.232 340.987 660.859 340.679 660.336 341.105L657.24 343.045C656.821 343.317 656.972 343.826 657.1 344.062 658.811 347.267 659.719 350.887 659.719 354.648 659.719 364.654 653.201 373.135 644.25 375.95 643.785 376.092 642.83 376.245 642.83 377.345L642.83 382.467C642.83 382.467 642.842 383.437 643.889 383.437L651.443 383.437C652.63 383.437 653.608 384.43 653.608 385.649L653.608 389.8C653.608 391.018 652.63 392 651.443 392L627.967 392C626.768 392 625.791 391.018 625.791 389.8L625.791 385.649C625.791 384.43 626.768 383.437 627.967 383.437L635.428 383.437C636.673 383.437 636.696 382.313 636.696 382.313L636.696 377.972C636.696 376.872 635.917 376.86 635.533 376.813 628.828 376.115 622.788 372.319 619.191 366.476 619.086 366.298 618.935 365.943 618.353 365.943L616.014 365.943C614.908 365.943 614 365.021 614 363.885L614 362.537C614 361.402 614.908 360.479 616.014 360.479L624.359 360.479C625.476 360.479 626.372 361.402 626.372 362.537L626.372 363.885C626.372 365.021 625.476 365.943 624.359 365.943L624.161 365.943C623.533 365.943 623.835 366.298 623.975 366.464 627.373 370.556 632.402 372.993 637.791 372.993 647.742 372.993 655.831 364.761 655.831 354.648 655.831 351.573 655.098 348.628 653.725 346.014 653.62 345.824 653.457 345.422 652.875 345.789L646.508 349.799C646.217 349.976 645.88 350.071 645.531 350.071 644.879 350.071 644.285 349.739 643.948 349.184L640.572 343.636C640.316 343.21 640.235 342.702 640.351 342.217 640.456 341.72 640.758 341.306 641.178 341.034L654.958 332.376C655.494 332.021 655.435 331.596 655.389 331.406 655.331 331.134 655.331 330.85 655.401 330.567 655.517 330.07 655.808 329.656 656.227 329.396L657.996 328.284C658.287 328.095 658.625 328 658.974 328Z" stroke="#A71F2B" fill="#A71F2B" fill-rule="evenodd"/></g></svg>