<svg width="256" height="256" viewBox="0 0 66 66" xmlns="http://www.w3.org/2000/svg" xmlns:xlink="http://www.w3.org/1999/xlink" overflow="hidden"><g transform="translate(-607 -327)"><path d="M638.751 375.989C639.39 375.989 639.907 376.507 639.907 377.146 639.907 377.786 639.39 378.304 638.751 378.304 638.113 378.304 637.596 377.786 637.596 377.146 637.596 376.507 638.113 375.989 638.751 375.989ZM642.724 371.679C643.36 371.679 643.876 372.196 643.876 372.833 643.876 373.47 643.36 373.987 642.724 373.987 642.088 373.987 641.572 373.47 641.572 372.833 641.572 372.196 642.088 371.679 642.724 371.679ZM654.084 369.512C653.484 369.512 653.007 370 653.007 370.6 653.007 371.19 653.484 371.678 654.084 371.678 654.684 371.678 655.162 371.19 655.162 370.6 655.162 370 654.684 369.512 654.084 369.512ZM628.71 367.377C628.073 367.377 627.548 367.892 627.548 368.539 627.548 369.176 628.073 369.692 628.71 369.692 629.348 369.692 629.863 369.176 629.863 368.539 629.863 367.892 629.348 367.377 628.71 367.377ZM654.084 367.205C655.959 367.205 657.477 368.724 657.477 370.6 657.477 372.466 655.959 373.994 654.084 373.994 652.21 373.994 650.691 372.466 650.691 370.6 650.691 368.724 652.21 367.205 654.084 367.205ZM628.71 365.062C630.622 365.062 632.177 366.617 632.177 368.539 632.177 370.451 630.622 372.007 628.71 372.007 626.799 372.007 625.243 370.451 625.243 368.539 625.243 366.617 626.799 365.062 628.71 365.062ZM636.317 356.978C636.958 356.978 637.477 357.494 637.477 358.132 637.477 358.769 636.958 359.285 636.317 359.285 635.677 359.285 635.158 358.769 635.158 358.132 635.158 357.494 635.677 356.978 636.317 356.978ZM646.894 356.875C645.834 356.875 644.963 357.738 644.963 358.798 644.963 359.867 645.834 360.73 646.894 360.73 647.953 360.73 648.815 359.867 648.815 358.798 648.815 357.738 647.953 356.875 646.894 356.875ZM646.894 354.559C649.227 354.559 651.13 356.463 651.13 358.798 651.13 361.143 649.227 363.037 646.894 363.037 644.55 363.037 642.657 361.143 642.657 358.798 642.657 356.463 644.55 354.559 646.894 354.559ZM655.619 351.931C656.26 351.931 656.779 352.448 656.779 353.085 656.779 353.722 656.26 354.239 655.619 354.239 654.979 354.239 654.46 353.722 654.46 353.085 654.46 352.448 654.979 351.931 655.619 351.931ZM627.293 351.26C625.522 351.26 624.088 352.694 624.088 354.474 624.088 356.235 625.522 357.678 627.293 357.678 629.065 357.678 630.509 356.235 630.509 354.474 630.509 352.694 629.065 351.26 627.293 351.26ZM627.293 348.946C630.34 348.946 632.824 351.42 632.824 354.474 632.824 357.519 630.34 359.992 627.293 359.992 624.247 359.992 621.772 357.519 621.772 354.474 621.772 351.42 624.247 348.946 627.293 348.946ZM633.708 345.046C634.349 345.046 634.868 345.564 634.868 346.203 634.868 346.843 634.349 347.361 633.708 347.361 633.068 347.361 632.549 346.843 632.549 346.203 632.549 345.564 633.068 345.046 633.708 345.046ZM647.436 343.751C648.072 343.751 648.588 344.269 648.588 344.908 648.588 345.547 648.072 346.066 647.436 346.066 646.8 346.066 646.284 345.547 646.284 344.908 646.284 344.269 646.8 343.751 647.436 343.751ZM641.805 343.391C641.439 343.391 641.13 343.7 641.13 344.066 641.13 344.441 641.439 344.741 641.805 344.741 642.18 344.741 642.481 344.441 642.481 344.066 642.481 343.7 642.18 343.391 641.805 343.391ZM641.805 341.086C643.456 341.086 644.798 342.426 644.798 344.066 644.798 345.715 643.456 347.056 641.805 347.056 640.163 347.056 638.822 345.715 638.822 344.066 638.822 342.426 640.163 341.086 641.805 341.086ZM639.996 335.965C626.751 335.965 615.971 346.746 615.971 359.992 615.971 373.248 626.751 384.029 639.996 384.029 653.251 384.029 664.031 373.248 664.031 359.992 664.031 346.746 653.251 335.965 639.996 335.965ZM639.996 333.65C654.526 333.65 666.337 345.471 666.337 359.992 666.337 374.523 654.526 386.335 639.996 386.335 625.476 386.335 613.656 374.523 613.656 359.992 613.656 345.471 625.476 333.65 639.996 333.65ZM639.995 330.315C623.627 330.315 610.315 343.627 610.315 359.995 610.315 376.363 623.627 389.685 639.995 389.685 656.363 389.685 669.685 376.363 669.685 359.995 669.685 343.627 656.363 330.315 639.995 330.315ZM639.995 328C657.638 328 672 342.352 672 359.995 672 377.638 657.638 392 639.995 392 622.352 392 608 377.638 608 359.995 608 342.352 622.352 328 639.995 328Z" stroke="#A71F2B" fill="#A71F2B" fill-rule="evenodd"/></g></svg>