<svg width="256" height="256" viewBox="0 0 66 56" xmlns="http://www.w3.org/2000/svg" xmlns:xlink="http://www.w3.org/1999/xlink" overflow="hidden"><style>
.MsftOfcThm_Text1_Fill_v2 {
 fill:#000000; 
}
</style>
<g transform="translate(-607 -332)"><path d="M612.573 382.499 669.716 382.499C671.087 382.499 672 383.401 672 384.751 672 386.101 671.087 387 669.716 387L610.284 387C609.83 387 608.913 386.549 608.459 386.549 608.459 386.101 608 385.199 608 384.751L608 335.249C608 333.899 608.913 333 610.284 333 611.656 333 612.573 333.899 612.573 335.249L612.573 382.499ZM634.058 347.85C634.971 346.951 636.342 346.5 637.259 347.399L637.714 347.85 638.172 348.301 648.685 359.549 665.601 341.551C666.514 340.649 667.886 340.649 668.803 341.551 669.716 342.45 669.716 343.8 668.803 344.699L650.515 364.05C649.602 364.949 648.231 364.949 646.859 363.599L635.888 352.799 622.173 367.649C621.256 368.551 619.885 368.551 618.972 367.649 618.059 366.75 618.059 365.4 618.972 364.501L634.058 347.85Z" class="MsftOfcThm_Text1_Fill_v2" fill-rule="evenodd"/></g></svg>