<svg width="256" height="256" viewBox="0 0 66 42" xmlns="http://www.w3.org/2000/svg" xmlns:xlink="http://www.w3.org/1999/xlink" overflow="hidden"><style>
.MsftOfcThm_Text1_Fill_v2 {
 fill:#000000; 
}
</style>
<g transform="translate(-607 -339)"><path d="M612.762 361.86C611.534 363.122 610.906 364.411 610.906 365.718 610.906 371.234 622.596 377.146 639.995 377.146 657.394 377.146 669.084 371.234 669.084 365.718 669.084 364.411 668.456 363.122 667.238 361.86 661.651 365.912 651.657 368.573 639.995 368.573 628.333 368.573 618.34 365.912 612.762 361.86ZM638.543 359.996C639.346 359.996 639.996 360.638 639.996 361.429 639.996 362.221 639.346 362.862 638.543 362.862 637.741 362.862 637.09 362.221 637.09 361.429 637.09 360.638 637.741 359.996 638.543 359.996ZM628.361 358.571C629.163 358.571 629.814 359.211 629.814 360 629.814 360.789 629.163 361.429 628.361 361.429 627.558 361.429 626.908 360.789 626.908 360 626.908 359.211 627.558 358.571 628.361 358.571ZM648.726 357.145C649.528 357.145 650.179 357.785 650.179 358.574 650.179 359.364 649.528 360.004 648.726 360.004 647.923 360.004 647.273 359.364 647.273 358.574 647.273 357.785 647.923 357.145 648.726 357.145ZM639.995 351.428C648.469 351.428 656.418 352.846 662.399 355.415 663.13 355.729 663.468 356.567 663.149 357.294 662.905 357.828 662.371 358.151 661.808 358.151 661.621 358.151 661.415 358.114 661.227 358.031 655.622 355.618 648.076 354.292 639.995 354.292 631.915 354.292 624.378 355.618 618.763 358.031 618.032 358.344 617.17 358.013 616.851 357.294 616.532 356.567 616.86 355.729 617.601 355.415 623.572 352.846 631.531 351.428 639.995 351.428ZM639.995 342.864C622.596 342.864 610.906 348.766 610.906 354.291 610.906 359.807 622.596 365.718 639.995 365.718 657.394 365.718 669.084 359.807 669.084 354.291 669.084 348.766 657.394 342.864 639.995 342.864ZM639.995 340C657.938 340 672 346.28 672 354.291L672 365.718C672 373.729 657.938 380 639.995 380 622.052 380 608 373.729 608 365.718L608 354.291C608 346.28 622.052 340 639.995 340Z" class="MsftOfcThm_Text1_Fill_v2" fill-rule="evenodd"/></g></svg>