<svg width="256" height="256" viewBox="0 0 66 66" xmlns="http://www.w3.org/2000/svg" xmlns:xlink="http://www.w3.org/1999/xlink" overflow="hidden"><g transform="translate(-607 -327)"><path d="M654.87 376.554C654.82 376.554 654.77 376.564 654.72 376.584 654.601 376.634 654.521 376.743 654.501 376.873L653.486 384.67C653.446 384.978 653.546 385.287 653.765 385.515 653.954 385.714 654.213 385.824 654.491 385.824 654.521 385.824 654.551 385.824 654.591 385.814 655.795 385.704 657.009 385.406 658.184 384.919 659.368 384.431 660.423 383.775 661.358 382.999 661.597 382.8 661.736 382.512 661.726 382.203 661.716 381.885 661.577 381.597 661.328 381.408L655.089 376.634C655.019 376.584 654.939 376.554 654.87 376.554ZM651.088 376.067C651.048 376.067 650.998 376.077 650.949 376.097L643.743 379.081C643.455 379.21 643.246 379.449 643.156 379.747 643.077 380.045 643.126 380.364 643.306 380.622 644.769 382.671 646.799 384.193 649.088 385.048 649.197 385.088 649.316 385.108 649.446 385.108 649.625 385.108 649.804 385.058 649.963 384.959 650.232 384.799 650.411 384.531 650.451 384.222L651.456 376.485C651.476 376.355 651.426 376.216 651.317 376.137 651.247 376.087 651.168 376.067 651.088 376.067ZM624.285 373.296C625.802 373.296 627.031 374.525 627.031 376.04 627.031 377.555 625.802 378.784 624.285 378.784 622.769 378.784 621.54 377.555 621.54 376.04 621.54 374.525 622.769 373.296 624.285 373.296ZM664.622 370.497C664.493 370.497 664.364 370.527 664.234 370.577L657.029 373.571C656.91 373.62 656.82 373.73 656.81 373.859 656.79 373.988 656.85 374.118 656.95 374.207L663.149 378.941C663.329 379.081 663.548 379.15 663.767 379.15 663.856 379.15 663.936 379.14 664.015 379.12 664.314 379.051 664.573 378.842 664.692 378.563 665.707 376.336 666.055 373.829 665.628 371.343 665.578 371.044 665.389 370.776 665.12 370.627 664.961 370.547 664.792 370.497 664.622 370.497ZM629.39 366.254C630.693 366.254 631.75 367.307 631.75 368.607 631.75 369.906 630.693 370.96 629.39 370.96 628.087 370.96 627.031 369.906 627.031 368.607 627.031 367.307 628.087 366.254 629.39 366.254ZM669.28 365.425C669.827 365.425 670.345 365.743 670.574 366.281 670.574 366.29 670.574 366.29 670.574 366.29 674.514 375.749 670.006 386.649 660.542 390.578 658.213 391.543 655.795 392 653.427 392 646.132 392 639.195 387.694 636.23 380.553 636.23 380.553 636.23 380.553 636.23 380.543 635.931 379.836 636.27 379.011 636.986 378.722L668.742 365.525C668.912 365.455 669.101 365.425 669.28 365.425ZM620.751 363.072C622.703 363.072 624.286 364.652 624.286 366.602 624.286 368.551 622.703 370.131 620.751 370.131 618.798 370.131 617.216 368.551 617.216 366.602 617.216 364.652 618.798 363.072 620.751 363.072ZM624.285 354.435C625.588 354.435 626.645 355.489 626.645 356.788 626.645 358.087 625.588 359.141 624.285 359.141 622.982 359.141 621.926 358.087 621.926 356.788 621.926 355.489 622.982 354.435 624.285 354.435ZM648.724 332.308 648.365 332.318C646.236 332.407 644.255 333.412 642.663 334.545L652.316 334.108C653.5 334.018 654.506 334.973 654.565 336.166 654.615 337.35 653.7 338.364 652.505 338.414L642.872 338.841C644.464 339.776 646.395 340.551 648.395 340.551L648.733 340.541C651.44 340.422 655.491 338.722 659.8 335.927 656.934 334.416 652.286 332.308 648.724 332.308ZM648.166 328.012C653.5 327.773 660.139 331.115 663.572 333.074 664.517 333.62 665.105 334.595 665.164 335.679 665.204 336.783 664.697 337.797 663.811 338.423 660.517 340.72 654.217 344.609 648.923 344.847 648.753 344.857 648.574 344.857 648.395 344.857 644.315 344.857 640.702 342.779 638.393 341.039 638.105 340.82 637.846 340.561 637.607 340.293 636.881 340.919 636.313 341.715 635.975 342.63 647.291 344.529 655.949 354.344 655.989 366.157L650.465 368.454C650.545 367.728 650.604 367.002 650.604 366.257 650.604 356.004 642.255 347.661 631.994 347.661 621.734 347.661 613.394 356.004 613.394 366.257 613.394 376.499 621.734 384.842 631.994 384.842 632.512 384.842 633.009 384.812 633.507 384.772 634.532 386.572 635.786 388.213 637.219 389.645 635.537 390.013 633.796 390.231 631.994 390.231 618.768 390.231 608 379.472 608 366.257 608 353.17 618.539 342.53 631.576 342.292 632.213 339.567 633.975 337.32 636.323 335.967 636.502 334.744 637.08 333.611 638.015 332.755 640.294 330.697 643.887 328.201 648.166 328.012Z" stroke="#A71F2B" fill="#A71F2B" fill-rule="evenodd"/></g></svg>